<svg width="20" height="16" viewBox="0 0 20 16" fill="none" xmlns="http://www.w3.org/2000/svg">
<path d="M18.0005 0.0109863H1.99969C0.900488 0.0109863 0.0100882 0.864062 0.0100882 1.90709L0.000488281 13.2814C0.000488281 14.3245 0.900488 15.1775 1.99969 15.1775H18.0005C19.0997 15.1775 19.9997 14.3245 19.9997 13.2814V1.90709C19.9997 0.864062 19.0997 0.0109863 18.0005 0.0109863ZM17.5997 4.03978L10.5305 8.23009C10.371 8.32317 10.1874 8.37246 10.0001 8.37246C9.81279 8.37246 9.62918 8.32317 9.46969 8.23009L2.40049 4.03978C2.30161 3.98576 2.21523 3.91341 2.14651 3.82705C2.07778 3.74069 2.02811 3.64209 2.00047 3.53714C1.97282 3.43219 1.96777 3.32303 1.98561 3.21619C2.00345 3.10934 2.04382 3.007 2.10431 2.91527C2.16479 2.82354 2.24416 2.7443 2.33766 2.68228C2.43116 2.62026 2.53689 2.57673 2.64854 2.55429C2.76018 2.53185 2.87545 2.53096 2.98746 2.55168C3.09947 2.57239 3.20593 2.61429 3.30049 2.67486L10.0001 6.64678L16.6997 2.67486C16.7942 2.61429 16.9007 2.57239 17.0127 2.55168C17.1247 2.53096 17.24 2.53185 17.3516 2.55429C17.4633 2.57673 17.569 2.62026 17.6625 2.68228C17.756 2.7443 17.8354 2.82354 17.8959 2.91527C17.9564 3.007 17.9967 3.10934 18.0146 3.21619C18.0324 3.32303 18.0274 3.43219 17.9997 3.53714C17.9721 3.64209 17.9224 3.74069 17.8537 3.82705C17.7849 3.91341 17.6986 3.98576 17.5997 4.03978Z" fill="url(#paint0_linear_70_42)"/>
<defs>
<linearGradient id="paint0_linear_70_42" x1="10.0001" y1="0.0109863" x2="10.0001" y2="15.1775" gradientUnits="userSpaceOnUse">
<stop stop-color="#FFBF00"/>
<stop offset="1" stop-color="#F2A60C"/>
</linearGradient>
</defs>
</svg>
