<svg width="16" height="20" viewBox="0 0 16 20" fill="none" xmlns="http://www.w3.org/2000/svg">
<path d="M7.99991 0.386963C3.79991 0.386963 -0.000488281 3.4387 -0.000488281 8.15905C-0.000488281 11.1733 2.44991 14.7186 7.33991 18.8032C7.5247 18.9543 7.76064 19.0375 8.00471 19.0375C8.24878 19.0375 8.48472 18.9543 8.66951 18.8032C13.5499 14.7186 16.0003 11.1733 16.0003 8.15905C16.0003 3.4387 12.1999 0.386963 7.99991 0.386963ZM7.99991 9.8652C6.89951 9.8652 5.99951 9.01213 5.99951 7.9691C5.99951 6.92607 6.89951 6.073 7.99991 6.073C9.10031 6.073 10.0003 6.92607 10.0003 7.9691C10.0003 9.01213 9.10031 9.8652 7.99991 9.8652Z" fill="url(#paint0_linear_70_39)"/>
<defs>
<linearGradient id="paint0_linear_70_39" x1="7.99991" y1="0.386963" x2="7.99991" y2="19.0375" gradientUnits="userSpaceOnUse">
<stop stop-color="#FFBF00"/>
<stop offset="1" stop-color="#F2A60C"/>
</linearGradient>
</defs>
</svg>
