<svg width="63" height="60" viewBox="0 0 63 60" fill="none" xmlns="http://www.w3.org/2000/svg">
<path d="M4.8 16.2802C4.8 15.0238 3.72548 14.0053 2.4 14.0053C1.07452 14.0053 0 15.0238 0 16.2802C0 17.5365 1.07452 18.555 2.4 18.555C3.72548 18.555 4.8 17.5365 4.8 16.2802Z" fill="#2E2E2E"/>
<path d="M4.8 2.63096C4.8 1.37458 3.72548 0.356087 2.4 0.356087C1.07452 0.356087 0 1.37458 0 2.63096C0 3.88733 1.07452 4.90582 2.4 4.90582C3.72548 4.90582 4.8 3.88733 4.8 2.63096Z" fill="#2E2E2E"/>
<path d="M19.2 43.5786C19.2 42.3222 18.1255 41.3037 16.8 41.3037C15.4745 41.3037 14.4 42.3222 14.4 43.5786C14.4 44.835 15.4745 45.8535 16.8 45.8535C18.1255 45.8535 19.2 44.835 19.2 43.5786Z" fill="#2E2E2E"/>
<path d="M19.2 29.9294C19.2 28.673 18.1255 27.6545 16.8 27.6545C15.4745 27.6545 14.4 28.673 14.4 29.9294C14.4 31.1858 15.4745 32.2043 16.8 32.2043C18.1255 32.2043 19.2 31.1858 19.2 29.9294Z" fill="#2E2E2E"/>
<path d="M19.2 16.2802C19.2 15.0238 18.1255 14.0053 16.8 14.0053C15.4745 14.0053 14.4 15.0238 14.4 16.2802C14.4 17.5365 15.4745 18.555 16.8 18.555C18.1255 18.555 19.2 17.5365 19.2 16.2802Z" fill="#2E2E2E"/>
<path d="M19.2 2.63096C19.2 1.37458 18.1255 0.356087 16.8 0.356087C15.4745 0.356087 14.4 1.37458 14.4 2.63096C14.4 3.88733 15.4745 4.90582 16.8 4.90582C18.1255 4.90582 19.2 3.88733 19.2 2.63096Z" fill="#2E2E2E"/>
<path d="M33.6 43.5786C33.6 42.3222 32.5255 41.3037 31.2 41.3037C29.8745 41.3037 28.8 42.3222 28.8 43.5786C28.8 44.835 29.8745 45.8535 31.2 45.8535C32.5255 45.8535 33.6 44.835 33.6 43.5786Z" fill="#2E2E2E"/>
<path d="M33.6 29.9294C33.6 28.673 32.5255 27.6545 31.2 27.6545C29.8745 27.6545 28.8 28.673 28.8 29.9294C28.8 31.1858 29.8745 32.2043 31.2 32.2043C32.5255 32.2043 33.6 31.1858 33.6 29.9294Z" fill="#2E2E2E"/>
<path d="M33.6 16.2802C33.6 15.0238 32.5255 14.0053 31.2 14.0053C29.8745 14.0053 28.8 15.0238 28.8 16.2802C28.8 17.5365 29.8745 18.555 31.2 18.555C32.5255 18.555 33.6 17.5365 33.6 16.2802Z" fill="#2E2E2E"/>
<path d="M33.6 2.63096C33.6 1.37458 32.5255 0.356087 31.2 0.356087C29.8745 0.356087 28.8 1.37458 28.8 2.63096C28.8 3.88733 29.8745 4.90582 31.2 4.90582C32.5255 4.90582 33.6 3.88733 33.6 2.63096Z" fill="#2E2E2E"/>
<path d="M46.8 57.2278C46.8 55.9714 45.7255 54.9529 44.4 54.9529C43.0745 54.9529 42 55.9714 42 57.2278C42 58.4842 43.0745 59.5027 44.4 59.5027C45.7255 59.5027 46.8 58.4842 46.8 57.2278Z" fill="#2E2E2E"/>
<path d="M48 43.5786C48 42.3222 46.9255 41.3037 45.6 41.3037C44.2745 41.3037 43.2 42.3222 43.2 43.5786C43.2 44.835 44.2745 45.8535 45.6 45.8535C46.9255 45.8535 48 44.835 48 43.5786Z" fill="#2E2E2E"/>
<path d="M48 29.9294C48 28.673 46.9255 27.6545 45.6 27.6545C44.2745 27.6545 43.2 28.673 43.2 29.9294C43.2 31.1858 44.2745 32.2043 45.6 32.2043C46.9255 32.2043 48 31.1858 48 29.9294Z" fill="#2E2E2E"/>
<path d="M48 16.2802C48 15.0238 46.9255 14.0053 45.6 14.0053C44.2745 14.0053 43.2 15.0238 43.2 16.2802C43.2 17.5365 44.2745 18.555 45.6 18.555C46.9255 18.555 48 17.5365 48 16.2802Z" fill="#2E2E2E"/>
<path d="M48 2.63096C48 1.37458 46.9255 0.356087 45.6 0.356087C44.2745 0.356087 43.2 1.37458 43.2 2.63096C43.2 3.88733 44.2745 4.90582 45.6 4.90582C46.9255 4.90582 48 3.88733 48 2.63096Z" fill="#2E2E2E"/>
<path d="M61.2 57.2278C61.2 55.9714 60.1255 54.9529 58.8 54.9529C57.4745 54.9529 56.4 55.9714 56.4 57.2278C56.4 58.4842 57.4745 59.5027 58.8 59.5027C60.1255 59.5027 61.2 58.4842 61.2 57.2278Z" fill="#2E2E2E"/>
<path d="M62.4 43.5786C62.4 42.3222 61.3255 41.3037 60 41.3037C58.6745 41.3037 57.6 42.3222 57.6 43.5786C57.6 44.835 58.6745 45.8535 60 45.8535C61.3255 45.8535 62.4 44.835 62.4 43.5786Z" fill="#2E2E2E"/>
<path d="M62.4 29.9294C62.4 28.673 61.3255 27.6545 60 27.6545C58.6745 27.6545 57.6 28.673 57.6 29.9294C57.6 31.1858 58.6745 32.2043 60 32.2043C61.3255 32.2043 62.4 31.1858 62.4 29.9294Z" fill="#2E2E2E"/>
<path d="M62.4 16.2802C62.4 15.0238 61.3255 14.0053 60 14.0053C58.6745 14.0053 57.6 15.0238 57.6 16.2802C57.6 17.5365 58.6745 18.555 60 18.555C61.3255 18.555 62.4 17.5365 62.4 16.2802Z" fill="#2E2E2E"/>
<path d="M62.4 2.63096C62.4 1.37458 61.3255 0.356087 60 0.356087C58.6745 0.356087 57.6 1.37458 57.6 2.63096C57.6 3.88733 58.6745 4.90582 60 4.90582C61.3255 4.90582 62.4 3.88733 62.4 2.63096Z" fill="#2E2E2E"/>
</svg>
