<svg width="63" height="60" viewBox="0 0 63 60" fill="none" xmlns="http://www.w3.org/2000/svg">
<path d="M57.5999 15.9241C57.5999 14.6677 58.6744 13.6492 59.9999 13.6492C61.3254 13.6492 62.3999 14.6677 62.3999 15.9241C62.3999 17.1805 61.3254 18.199 59.9999 18.199C58.6744 18.199 57.5999 17.1805 57.5999 15.9241Z" fill="#737373"/>
<path d="M57.5999 2.27488C57.5999 1.0185 58.6744 8.20797e-06 59.9999 8.20797e-06C61.3254 8.20797e-06 62.3999 1.0185 62.3999 2.27488C62.3999 3.53125 61.3254 4.54974 59.9999 4.54974C58.6744 4.54974 57.5999 3.53125 57.5999 2.27488Z" fill="#737373"/>
<path d="M43.1999 43.2225C43.1999 41.9661 44.2744 40.9477 45.5999 40.9477C46.9254 40.9477 47.9999 41.9661 47.9999 43.2225C47.9999 44.4789 46.9254 45.4974 45.5999 45.4974C44.2744 45.4974 43.1999 44.4789 43.1999 43.2225Z" fill="#737373"/>
<path d="M43.1999 29.5733C43.1999 28.3169 44.2744 27.2984 45.5999 27.2984C46.9254 27.2984 47.9999 28.3169 47.9999 29.5733C47.9999 30.8297 46.9254 31.8482 45.5999 31.8482C44.2744 31.8482 43.1999 30.8297 43.1999 29.5733Z" fill="#737373"/>
<path d="M43.1999 15.9241C43.1999 14.6677 44.2744 13.6492 45.5999 13.6492C46.9254 13.6492 47.9999 14.6677 47.9999 15.9241C47.9999 17.1805 46.9254 18.199 45.5999 18.199C44.2744 18.199 43.1999 17.1805 43.1999 15.9241Z" fill="#737373"/>
<path d="M43.1999 2.27488C43.1999 1.0185 44.2744 8.20797e-06 45.5999 8.20797e-06C46.9254 8.20797e-06 47.9999 1.0185 47.9999 2.27488C47.9999 3.53125 46.9254 4.54974 45.5999 4.54974C44.2744 4.54974 43.1999 3.53125 43.1999 2.27488Z" fill="#737373"/>
<path d="M28.7999 43.2225C28.7999 41.9661 29.8744 40.9477 31.1999 40.9477C32.5254 40.9477 33.5999 41.9661 33.5999 43.2225C33.5999 44.4789 32.5254 45.4974 31.1999 45.4974C29.8744 45.4974 28.7999 44.4789 28.7999 43.2225Z" fill="#737373"/>
<path d="M28.7999 29.5733C28.7999 28.3169 29.8744 27.2984 31.1999 27.2984C32.5254 27.2984 33.5999 28.3169 33.5999 29.5733C33.5999 30.8297 32.5254 31.8482 31.1999 31.8482C29.8744 31.8482 28.7999 30.8297 28.7999 29.5733Z" fill="#737373"/>
<path d="M28.7999 15.9241C28.7999 14.6677 29.8744 13.6492 31.1999 13.6492C32.5254 13.6492 33.5999 14.6677 33.5999 15.9241C33.5999 17.1805 32.5254 18.199 31.1999 18.199C29.8744 18.199 28.7999 17.1805 28.7999 15.9241Z" fill="#737373"/>
<path d="M28.7999 2.27488C28.7999 1.0185 29.8744 8.20797e-06 31.1999 8.20797e-06C32.5254 8.20797e-06 33.5999 1.0185 33.5999 2.27488C33.5999 3.53125 32.5254 4.54974 31.1999 4.54974C29.8744 4.54974 28.7999 3.53125 28.7999 2.27488Z" fill="#737373"/>
<path d="M15.5999 56.8717C15.5999 55.6154 16.6744 54.5969 17.9999 54.5969C19.3254 54.5969 20.3999 55.6154 20.3999 56.8717C20.3999 58.1281 19.3254 59.1466 17.9999 59.1466C16.6744 59.1466 15.5999 58.1281 15.5999 56.8717Z" fill="#737373"/>
<path d="M14.3999 43.2225C14.3999 41.9661 15.4744 40.9477 16.7999 40.9477C18.1254 40.9477 19.1999 41.9661 19.1999 43.2225C19.1999 44.4789 18.1254 45.4974 16.7999 45.4974C15.4744 45.4974 14.3999 44.4789 14.3999 43.2225Z" fill="#737373"/>
<path d="M14.3999 29.5733C14.3999 28.3169 15.4744 27.2984 16.7999 27.2984C18.1254 27.2984 19.1999 28.3169 19.1999 29.5733C19.1999 30.8297 18.1254 31.8482 16.7999 31.8482C15.4744 31.8482 14.3999 30.8297 14.3999 29.5733Z" fill="#737373"/>
<path d="M14.3999 15.9241C14.3999 14.6677 15.4744 13.6492 16.7999 13.6492C18.1254 13.6492 19.1999 14.6677 19.1999 15.9241C19.1999 17.1805 18.1254 18.199 16.7999 18.199C15.4744 18.199 14.3999 17.1805 14.3999 15.9241Z" fill="#737373"/>
<path d="M14.3999 2.27488C14.3999 1.0185 15.4744 8.20797e-06 16.7999 8.20797e-06C18.1254 8.20797e-06 19.1999 1.0185 19.1999 2.27488C19.1999 3.53125 18.1254 4.54974 16.7999 4.54974C15.4744 4.54974 14.3999 3.53125 14.3999 2.27488Z" fill="#737373"/>
<path d="M1.1999 56.8717C1.1999 55.6154 2.27442 54.5969 3.5999 54.5969C4.92538 54.5969 5.9999 55.6154 5.9999 56.8717C5.9999 58.1281 4.92538 59.1466 3.5999 59.1466C2.27442 59.1466 1.1999 58.1281 1.1999 56.8717Z" fill="#737373"/>
<path d="M-9.91821e-05 43.2225C-9.91821e-05 41.9661 1.07441 40.9477 2.3999 40.9477C3.72538 40.9477 4.7999 41.9661 4.7999 43.2225C4.7999 44.4789 3.72538 45.4974 2.3999 45.4974C1.07441 45.4974 -9.91821e-05 44.4789 -9.91821e-05 43.2225Z" fill="#737373"/>
<path d="M-9.91821e-05 29.5733C-9.91821e-05 28.3169 1.07441 27.2984 2.3999 27.2984C3.72538 27.2984 4.7999 28.3169 4.7999 29.5733C4.7999 30.8297 3.72538 31.8482 2.3999 31.8482C1.07441 31.8482 -9.91821e-05 30.8297 -9.91821e-05 29.5733Z" fill="#737373"/>
<path d="M-9.91821e-05 15.9241C-9.91821e-05 14.6677 1.07441 13.6492 2.3999 13.6492C3.72538 13.6492 4.7999 14.6677 4.7999 15.9241C4.7999 17.1805 3.72538 18.199 2.3999 18.199C1.07441 18.199 -9.91821e-05 17.1805 -9.91821e-05 15.9241Z" fill="#737373"/>
<path d="M-9.91821e-05 2.27488C-9.91821e-05 1.0185 1.07441 8.20797e-06 2.3999 8.20797e-06C3.72538 8.20797e-06 4.7999 1.0185 4.7999 2.27488C4.7999 3.53125 3.72538 4.54974 2.3999 4.54974C1.07441 4.54974 -9.91821e-05 3.53125 -9.91821e-05 2.27488Z" fill="#737373"/>
</svg>
