<svg width="18" height="18" viewBox="0 0 18 18" fill="none" xmlns="http://www.w3.org/2000/svg">
<path d="M16.23 12.2291L13.6896 11.9539C13.3911 11.9207 13.0885 11.9521 12.8046 12.0457C12.5207 12.1393 12.2628 12.2926 12.0504 12.4942L10.2096 14.2378C7.37123 12.8694 5.06414 10.6826 3.6204 7.99219L5.4696 6.23827C5.9004 5.83107 6.1104 5.26235 6.0396 4.6834L5.7504 2.29478C5.69356 1.83231 5.4593 1.4058 5.0922 1.09643C4.72511 0.787067 4.25081 0.616452 3.7596 0.617067H2.0304C0.900001 0.617067 -0.0395985 1.50882 0.0300015 2.57914C0.560401 10.6743 7.3896 17.1383 15.9204 17.6411C17.0496 17.707 17.9904 16.8164 17.9904 15.7449V14.1059C17.9929 13.6423 17.8145 13.1943 17.4895 12.8478C17.1646 12.5014 16.716 12.281 16.23 12.2291Z" fill="url(#paint0_linear_70_47)"/>
<defs>
<linearGradient id="paint0_linear_70_47" x1="9.0084" y1="0.617065" x2="9.0084" y2="17.6445" gradientUnits="userSpaceOnUse">
<stop stop-color="#FFBF00"/>
<stop offset="1" stop-color="#F2A60C"/>
</linearGradient>
</defs>
</svg>
